<svg xmlns="http://www.w3.org/2000/svg" width="27" height="36.001" viewBox="0 0 27 36.001">
  <path id="Icon_awesome-award" data-name="Icon awesome-award" d="M6.829,25.5c-.611-.611-.293-.439-1.766-.833a5.073,5.073,0,0,1-1.788-.937L.084,31.549A1.125,1.125,0,0,0,1.169,33.1l3.7-.141,2.548,2.692A1.125,1.125,0,0,0,9.281,35.3l3.66-8.973A5.046,5.046,0,0,1,6.829,25.5Zm20.087,6.052-3.19-7.822a5.062,5.062,0,0,1-1.788.937c-1.481.4-1.157.224-1.766.833a5.047,5.047,0,0,1-6.112.829l3.66,8.973a1.125,1.125,0,0,0,1.858.349l2.549-2.692,3.7.141a1.125,1.125,0,0,0,1.085-1.549Zm-8.423-7.643c1.074-1.093,1.2-1,2.727-1.416a2.857,2.857,0,0,0,2-2.038c.526-2,.39-1.756,1.825-3.217a2.917,2.917,0,0,0,.733-2.783c-.525-2-.526-1.717,0-3.715a2.917,2.917,0,0,0-.733-2.783c-1.435-1.461-1.3-1.221-1.825-3.217a2.857,2.857,0,0,0-2-2.038c-1.96-.535-1.724-.4-3.161-1.857A2.8,2.8,0,0,0,15.325.1c-1.96.534-1.686.535-3.649,0A2.8,2.8,0,0,0,8.941.844C7.506,2.3,7.742,2.166,5.781,2.7a2.857,2.857,0,0,0-2,2.038c-.525,2-.39,1.756-1.825,3.217a2.915,2.915,0,0,0-.733,2.783c.525,1.994.526,1.716,0,3.714a2.919,2.919,0,0,0,.733,2.784c1.435,1.461,1.3,1.22,1.825,3.217a2.857,2.857,0,0,0,2,2.038c1.574.429,1.691.361,2.727,1.416a2.794,2.794,0,0,0,3.5.409,2.79,2.79,0,0,1,2.99,0A2.793,2.793,0,0,0,18.492,23.906ZM6.867,12.372A6.634,6.634,0,1,1,13.5,19.124a6.693,6.693,0,0,1-6.633-6.751Z" transform="translate(0 0.001)" fill="#002e36"/>
</svg>
