<svg xmlns="http://www.w3.org/2000/svg" width="133.271" height="106.616" viewBox="0 0 133.271 106.616">
  <path id="Icon_awesome-chalkboard-teacher" data-name="Icon awesome-chalkboard-teacher" d="M43.313,73.3a4.764,4.764,0,0,0-1.47.227,27.469,27.469,0,0,1-8.525,1.439,27.493,27.493,0,0,1-8.527-1.439,4.751,4.751,0,0,0-1.468-.227A23.324,23.324,0,0,0,0,96.75a9.97,9.97,0,0,0,10,9.866H56.64a9.97,9.97,0,0,0,10-9.866A23.324,23.324,0,0,0,43.313,73.3Zm-10-6.664a19.99,19.99,0,1,0-19.991-19.99A19.99,19.99,0,0,0,33.318,66.635ZM123.275,0H43.313a10.177,10.177,0,0,0-10,10.326V19.99A26.352,26.352,0,0,1,46.645,23.7V13.327h73.3V73.3H106.616V59.971H79.962V73.3H64.086a26.54,26.54,0,0,1,8.265,13.327h50.924a10.177,10.177,0,0,0,10-10.326V10.326A10.177,10.177,0,0,0,123.275,0Z" fill="#77829f"/>
</svg>
