<svg xmlns="http://www.w3.org/2000/svg" width="129.765" height="84.333" viewBox="0 0 129.765 84.333">
  <g id="Group_119" data-name="Group 119" transform="translate(-1333.107 -2999.614)">
    <path id="Path_40" data-name="Path 40" d="M75.415,72.631c-3.237-1.156-8.526-1.214-10.867-2.11-1.618-.636-4.191-1.329-5.029-2.341s-.838-8.237-.838-8.237A13.306,13.306,0,0,0,61.543,55.9c.838-2.11,1.387-7.948,1.387-7.948s1.907.809,2.659-3.006c.636-3.295,1.85-5.029,1.532-7.456-.347-2.428-1.676-1.85-1.676-1.85s1.676-2.457,1.676-10.809c0-8.612-6.5-17.08-18.67-17.08-12.138,0-18.7,8.5-18.7,17.08,0,8.352,1.647,10.809,1.647,10.809s-1.358-.578-1.676,1.85c-.347,2.428.867,4.162,1.532,7.456.751,3.844,2.659,3.006,2.659,3.006s.549,5.809,1.387,7.948a13.306,13.306,0,0,0,2.861,4.046s0,7.225-.838,8.237-3.41,1.705-5.029,2.312c-2.312.9-7.6,1.012-10.867,2.168A20.4,20.4,0,0,0,8.191,92.082H88.623A20.356,20.356,0,0,0,75.415,72.631Z" transform="translate(1349.481 2991.865)" fill="#d8556e"/>
    <path id="Path_41" data-name="Path 41" d="M33.572,47.8s6.907-.231,9.653-2.688C38.746,38.317,41.173,30.4,40.249,23c-.925-7.37-5.115-11.792-13.5-11.792h-.116C18.544,11.208,14.18,15.6,13.255,23c-.925,7.37,1.647,16.185-2.948,22.109,2.746,2.485,9.682,2.4,9.682,2.4h0s.289,4.162-.289,4.855a7.3,7.3,0,0,1-3.468,1.59,67.057,67.057,0,0,0-7.485,2.081C6.492,56.814,2.215,61,2.215,66.784H25.422c.636-2.312,5-6.445,9.248-8.612,2.6-1.329,5.173-1.243,7.139-1.5,0,0,1.1-1.734-2.514-2.4,0,0-4.971-1.243-5.549-1.936C33.2,51.7,33.572,47.8,33.572,47.8Z" transform="translate(1330.892 3002.625)" fill="#d8556e"/>
    <path id="Path_42" data-name="Path 42" d="M33.461,47.8s-6.907-.231-9.653-2.688C28.287,38.317,25.86,30.4,26.785,23c.925-7.37,5.115-11.792,13.5-11.792H40.4c8.092,0,12.456,4.393,13.381,11.792.925,7.37-1.647,16.185,2.948,22.109-2.746,2.485-9.682,2.4-9.682,2.4h0s-.289,4.162.289,4.855a7.3,7.3,0,0,0,3.468,1.59,67.058,67.058,0,0,1,7.485,2.081c2.254.78,6.532,4.971,6.532,10.751H41.611c-.636-2.312-5-6.445-9.248-8.612-2.6-1.329-5.173-1.243-7.139-1.5,0,0-1.1-1.734,2.514-2.4,0,0,4.971-1.243,5.549-1.936C33.836,51.7,33.461,47.8,33.461,47.8Z" transform="translate(1398.054 3002.625)" fill="#d8556e"/>
  </g>
</svg>
