<svg xmlns="http://www.w3.org/2000/svg" width="153.092" height="146.61" viewBox="0 0 153.092 146.61">
  <g id="Group_120" data-name="Group 120" transform="translate(4190.092 -6994.389)">
    <path id="Icon_awesome-linkedin" data-name="Icon awesome-linkedin" d="M56.208,2.25H4.31A4.342,4.342,0,0,0,0,6.614v51.8a4.342,4.342,0,0,0,4.31,4.364h51.9a4.354,4.354,0,0,0,4.324-4.364V6.614A4.354,4.354,0,0,0,56.208,2.25ZM18.295,54.135H9.323V25.247h8.985V54.135ZM13.809,21.3a5.2,5.2,0,1,1,5.2-5.2A5.2,5.2,0,0,1,13.809,21.3ZM51.925,54.135H42.953V40.082c0-3.351-.068-7.661-4.661-7.661-4.675,0-5.391,3.648-5.391,7.418v14.3H23.929V25.247h8.607v3.945h.122a9.45,9.45,0,0,1,8.5-4.662c9.08,0,10.769,5.986,10.769,13.768Z" transform="translate(-4143.266 7078.218)" fill="#77829f"/>
    <path id="Icon_awesome-instagram" data-name="Icon awesome-instagram" d="M30.274,16.984A15.519,15.519,0,1,0,45.793,32.5,15.495,15.495,0,0,0,30.274,16.984Zm0,25.609A10.09,10.09,0,1,1,40.363,32.5a10.108,10.108,0,0,1-10.09,10.09ZM50.048,16.349a3.62,3.62,0,1,1-3.62-3.62A3.611,3.611,0,0,1,50.048,16.349Zm10.279,3.674c-.23-4.849-1.337-9.144-4.889-12.683S47.6,2.694,42.754,2.45c-5-.284-19.977-.284-24.974,0C12.944,2.68,8.649,3.788,5.1,7.326S.451,15.16.207,20.009c-.284,5-.284,19.977,0,24.974.23,4.849,1.337,9.144,4.889,12.683s7.834,4.646,12.683,4.889c5,.284,19.977.284,24.974,0,4.849-.23,9.144-1.337,12.683-4.889s4.646-7.834,4.889-12.683c.284-5,.284-19.963,0-24.961ZM53.87,50.346A10.215,10.215,0,0,1,48.116,56.1c-3.985,1.58-13.439,1.216-17.842,1.216S16.4,57.666,12.431,56.1a10.215,10.215,0,0,1-5.754-5.754C5.1,46.361,5.462,36.906,5.462,32.5S5.11,18.632,6.677,14.661a10.215,10.215,0,0,1,5.754-5.754c3.985-1.58,13.439-1.216,17.842-1.216S44.145,7.34,48.116,8.907a10.215,10.215,0,0,1,5.754,5.754C55.45,18.645,55.086,28.1,55.086,32.5S55.45,46.375,53.87,50.346Z" transform="translate(-4097.539 6992.151)" fill="#77829f"/>
    <path id="Icon_awesome-twitter-square" data-name="Icon awesome-twitter-square" d="M54.046,2.25H6.485A6.487,6.487,0,0,0,0,8.736V56.3a6.487,6.487,0,0,0,6.485,6.486h47.56A6.487,6.487,0,0,0,60.531,56.3V8.736A6.487,6.487,0,0,0,54.046,2.25ZM47.439,23.706c.027.378.027.77.027,1.148,0,11.714-8.918,25.212-25.212,25.212A25.1,25.1,0,0,1,8.647,46.095a18.67,18.67,0,0,0,2.135.108,17.767,17.767,0,0,0,11-3.783A8.873,8.873,0,0,1,13.5,36.272a9.551,9.551,0,0,0,4-.162,8.862,8.862,0,0,1-7.094-8.7V27.3a8.856,8.856,0,0,0,4,1.121,8.843,8.843,0,0,1-3.945-7.377,8.751,8.751,0,0,1,1.2-4.472,25.162,25.162,0,0,0,18.267,9.269,8.88,8.88,0,0,1,15.119-8.093,17.364,17.364,0,0,0,5.621-2.135,8.838,8.838,0,0,1-3.891,4.878,17.635,17.635,0,0,0,5.107-1.378A18.652,18.652,0,0,1,47.439,23.706Z" transform="translate(-4190.092 6992.14)" fill="#77829f"/>
  </g>
</svg>
