<svg xmlns="http://www.w3.org/2000/svg" width="136.379" height="95.266" viewBox="0 0 136.379 95.266">
  <path id="Icon_metro-books" data-name="Icon metro-books" d="M30.357,8.571H6.541a3.981,3.981,0,0,0-3.969,3.969V99.867a3.981,3.981,0,0,0,3.969,3.969H30.357a3.981,3.981,0,0,0,3.969-3.969V12.541a3.981,3.981,0,0,0-3.969-3.969ZM26.388,32.388H10.51V24.449H26.388ZM70.051,8.571H46.235a3.981,3.981,0,0,0-3.969,3.969V99.867a3.981,3.981,0,0,0,3.969,3.969H70.051a3.981,3.981,0,0,0,3.969-3.969V12.541a3.981,3.981,0,0,0-3.969-3.969ZM66.082,32.388H50.2V24.449H66.082ZM97.476,14.709,76.207,25.426a3.981,3.981,0,0,0-1.759,5.331l35.722,70.9a3.981,3.981,0,0,0,5.331,1.759L136.77,92.7a3.981,3.981,0,0,0,1.759-5.331l-35.722-70.9a3.981,3.981,0,0,0-5.331-1.759Zm20.208,85.158a3.969,3.969,0,1,1-3.969-3.969A3.969,3.969,0,0,1,117.684,99.867Z" transform="translate(-2.571 -8.571)" fill="#d8556e"/>
</svg>
