<svg xmlns="http://www.w3.org/2000/svg" width="57.39" height="57.377" viewBox="0 0 57.39 57.377">
  <path id="Icon_awesome-instagram" data-name="Icon awesome-instagram" d="M28.7,16.215A14.711,14.711,0,1,0,43.407,30.926,14.687,14.687,0,0,0,28.7,16.215Zm0,24.275a9.564,9.564,0,1,1,9.564-9.564A9.581,9.581,0,0,1,28.7,40.49ZM47.44,15.614a3.431,3.431,0,1,1-3.431-3.431A3.423,3.423,0,0,1,47.44,15.614ZM57.183,19.1c-.218-4.6-1.268-8.668-4.635-12.022s-7.426-4.4-12.022-4.635c-4.737-.269-18.936-.269-23.673,0C12.27,2.657,8.2,3.707,4.831,7.061S.427,14.487.2,19.083C-.072,23.82-.072,38.019.2,42.756c.218,4.6,1.268,8.668,4.635,12.022s7.426,4.4,12.022,4.635c4.737.269,18.936.269,23.673,0,4.6-.218,8.668-1.268,12.022-4.635s4.4-7.426,4.635-12.022c.269-4.737.269-18.923,0-23.66Zm-6.12,28.743a9.683,9.683,0,0,1-5.454,5.454c-3.777,1.5-12.739,1.152-16.913,1.152s-13.149.333-16.913-1.152a9.683,9.683,0,0,1-5.454-5.454C4.831,44.062,5.177,35.1,5.177,30.926S4.844,17.777,6.329,14.013a9.683,9.683,0,0,1,5.454-5.454C15.56,7.061,24.522,7.407,28.7,7.407s13.149-.333,16.913,1.152a9.683,9.683,0,0,1,5.454,5.454c1.5,3.777,1.152,12.739,1.152,16.913S52.561,44.075,51.063,47.839Z" transform="translate(0.005 -2.238)" fill="#6a6a6a"/>
</svg>
