<svg xmlns="http://www.w3.org/2000/svg" width="60.544" height="60.531" viewBox="0 0 60.544 60.531">
  <path id="Icon_awesome-instagram" data-name="Icon awesome-instagram" d="M30.274,16.984A15.519,15.519,0,1,0,45.793,32.5,15.495,15.495,0,0,0,30.274,16.984Zm0,25.609A10.09,10.09,0,1,1,40.363,32.5a10.108,10.108,0,0,1-10.09,10.09ZM50.048,16.349a3.62,3.62,0,1,1-3.62-3.62A3.611,3.611,0,0,1,50.048,16.349Zm10.279,3.674c-.23-4.849-1.337-9.144-4.889-12.683S47.6,2.694,42.754,2.45c-5-.284-19.977-.284-24.974,0C12.944,2.68,8.649,3.788,5.1,7.326S.451,15.16.207,20.009c-.284,5-.284,19.977,0,24.974.23,4.849,1.337,9.144,4.889,12.683s7.834,4.646,12.683,4.889c5,.284,19.977.284,24.974,0,4.849-.23,9.144-1.337,12.683-4.889s4.646-7.834,4.889-12.683c.284-5,.284-19.963,0-24.961ZM53.87,50.346A10.215,10.215,0,0,1,48.116,56.1c-3.985,1.58-13.439,1.216-17.842,1.216S16.4,57.666,12.431,56.1a10.215,10.215,0,0,1-5.754-5.754C5.1,46.361,5.462,36.906,5.462,32.5S5.11,18.632,6.677,14.661a10.215,10.215,0,0,1,5.754-5.754c3.985-1.58,13.439-1.216,17.842-1.216S44.145,7.34,48.116,8.907a10.215,10.215,0,0,1,5.754,5.754C55.45,18.645,55.086,28.1,55.086,32.5S55.45,46.375,53.87,50.346Z" transform="translate(0.005 -2.237)" fill="#77829f"/>
</svg>
