<svg xmlns="http://www.w3.org/2000/svg" width="60.532" height="60.532" viewBox="0 0 60.532 60.532">
  <path id="Icon_awesome-linkedin" data-name="Icon awesome-linkedin" d="M56.208,2.25H4.31A4.342,4.342,0,0,0,0,6.614v51.8a4.342,4.342,0,0,0,4.31,4.364h51.9a4.354,4.354,0,0,0,4.324-4.364V6.614A4.354,4.354,0,0,0,56.208,2.25ZM18.295,54.135H9.323V25.247h8.985V54.135ZM13.809,21.3a5.2,5.2,0,1,1,5.2-5.2A5.2,5.2,0,0,1,13.809,21.3ZM51.925,54.135H42.953V40.082c0-3.351-.068-7.661-4.661-7.661-4.675,0-5.391,3.648-5.391,7.418v14.3H23.929V25.247h8.607v3.945h.122a9.45,9.45,0,0,1,8.5-4.662c9.08,0,10.769,5.986,10.769,13.768Z" transform="translate(0 -2.25)" fill="#77829f"/>
</svg>
