<svg xmlns="http://www.w3.org/2000/svg" width="57.377" height="57.377" viewBox="0 0 57.377 57.377">
  <path id="Icon_awesome-linkedin" data-name="Icon awesome-linkedin" d="M53.279,2.25H4.086A4.116,4.116,0,0,0,0,6.387v49.1a4.116,4.116,0,0,0,4.086,4.137H53.279a4.127,4.127,0,0,0,4.1-4.137V6.387A4.127,4.127,0,0,0,53.279,2.25ZM17.341,51.43h-8.5V24.048h8.517V51.43ZM13.089,20.308a4.931,4.931,0,1,1,4.931-4.931,4.933,4.933,0,0,1-4.931,4.931ZM49.219,51.43h-8.5V38.111c0-3.176-.064-7.262-4.419-7.262-4.431,0-5.11,3.458-5.11,7.031V51.43h-8.5V24.048H30.84v3.74h.115a8.957,8.957,0,0,1,8.056-4.419c8.607,0,10.207,5.674,10.207,13.051Z" transform="translate(0 -2.25)" fill="#6a6a6a"/>
</svg>
