<svg xmlns="http://www.w3.org/2000/svg" width="36.827" height="31.247" viewBox="0 0 36.827 31.247">
  <path id="Icon_ionic-ios-share-alt" data-name="Icon ionic-ios-share-alt" d="M38.02,18.584,25.6,6.961A.635.635,0,0,0,25.1,6.75c-.387.018-.88.291-.88.7v5.829a.376.376,0,0,1-.317.361C11.552,15.537,6.349,24.782,4.508,34.38c-.07.379.44.731.678.431,4.508-5.679,9.994-9.386,18.666-9.456a.436.436,0,0,1,.37.423V31.5a.756.756,0,0,0,1.277.467L38.011,20.142a.972.972,0,0,0,.308-.74A1.18,1.18,0,0,0,38.02,18.584Z" transform="translate(-2.993 -5.25)" fill="none" stroke="#000" stroke-width="4"/>
</svg>
