<svg xmlns="http://www.w3.org/2000/svg" width="57.377" height="57.377" viewBox="0 0 57.377 57.377">
  <path id="Icon_awesome-twitter-square" data-name="Icon awesome-twitter-square" d="M51.229,2.25H6.148A6.149,6.149,0,0,0,0,8.4V53.479a6.149,6.149,0,0,0,6.148,6.148H51.229a6.149,6.149,0,0,0,6.148-6.148V8.4A6.149,6.149,0,0,0,51.229,2.25ZM44.967,22.588c.026.359.026.73.026,1.089,0,11.1-8.453,23.9-23.9,23.9A23.788,23.788,0,0,1,8.2,43.81a17.7,17.7,0,0,0,2.024.1,16.841,16.841,0,0,0,10.425-3.586A8.411,8.411,0,0,1,12.795,34.5a9.053,9.053,0,0,0,3.791-.154A8.4,8.4,0,0,1,9.862,26.1v-.1a8.394,8.394,0,0,0,3.791,1.063,8.382,8.382,0,0,1-3.74-6.993,8.3,8.3,0,0,1,1.14-4.239,23.85,23.85,0,0,0,17.316,8.786A8.418,8.418,0,0,1,42.7,16.94a16.46,16.46,0,0,0,5.328-2.024,8.378,8.378,0,0,1-3.689,4.623,16.716,16.716,0,0,0,4.841-1.306A17.68,17.68,0,0,1,44.967,22.588Z" transform="translate(0 -2.25)" fill="#6a6a6a"/>
</svg>
