<svg xmlns="http://www.w3.org/2000/svg" width="60.531" height="60.531" viewBox="0 0 60.531 60.531">
  <path id="Icon_awesome-twitter-square" data-name="Icon awesome-twitter-square" d="M54.046,2.25H6.485A6.487,6.487,0,0,0,0,8.736V56.3a6.487,6.487,0,0,0,6.485,6.486h47.56A6.487,6.487,0,0,0,60.531,56.3V8.736A6.487,6.487,0,0,0,54.046,2.25ZM47.439,23.706c.027.378.027.77.027,1.148,0,11.714-8.918,25.212-25.212,25.212A25.1,25.1,0,0,1,8.647,46.095a18.67,18.67,0,0,0,2.135.108,17.767,17.767,0,0,0,11-3.783A8.873,8.873,0,0,1,13.5,36.272a9.551,9.551,0,0,0,4-.162,8.862,8.862,0,0,1-7.094-8.7V27.3a8.856,8.856,0,0,0,4,1.121,8.843,8.843,0,0,1-3.945-7.377,8.751,8.751,0,0,1,1.2-4.472,25.162,25.162,0,0,0,18.267,9.269,8.88,8.88,0,0,1,15.119-8.093,17.364,17.364,0,0,0,5.621-2.135,8.838,8.838,0,0,1-3.891,4.878,17.635,17.635,0,0,0,5.107-1.378A18.652,18.652,0,0,1,47.439,23.706Z" transform="translate(0 -2.25)" fill="#77829f"/>
</svg>
